<svg width="864" height="232" viewBox="0 0 864 232" fill="none" xmlns="http://www.w3.org/2000/svg">
<path d="M226.44 162V72.4H236.936L296.2 146H290.696V72.4H303.496V162H293L233.736 88.4H239.24V162H226.44ZM357.579 162.768C350.752 162.768 344.694 161.275 339.403 158.288C334.112 155.301 329.931 151.205 326.859 146C323.787 140.709 322.251 134.736 322.251 128.08C322.251 121.339 323.787 115.365 326.859 110.16C329.931 104.955 334.112 100.901 339.403 98C344.694 95.0133 350.752 93.52 357.579 93.52C364.32 93.52 370.336 95.0133 375.627 98C381.003 100.901 385.184 104.955 388.171 110.16C391.243 115.28 392.779 121.253 392.779 128.08C392.779 134.821 391.243 140.795 388.171 146C385.184 151.205 381.003 155.301 375.627 158.288C370.336 161.275 364.32 162.768 357.579 162.768ZM357.579 152.016C361.931 152.016 365.814 151.035 369.227 149.072C372.726 147.109 375.456 144.336 377.419 140.752C379.382 137.083 380.363 132.859 380.363 128.08C380.363 123.216 379.382 119.035 377.419 115.536C375.456 111.952 372.726 109.179 369.227 107.216C365.814 105.253 361.931 104.272 357.579 104.272C353.227 104.272 349.344 105.253 345.931 107.216C342.518 109.179 339.787 111.952 337.739 115.536C335.691 119.035 334.667 123.216 334.667 128.08C334.667 132.859 335.691 137.083 337.739 140.752C339.787 144.336 342.518 147.109 345.931 149.072C349.344 151.035 353.227 152.016 357.579 152.016ZM451.26 162V147.664L450.62 144.976V120.528C450.62 115.323 449.084 111.312 446.012 108.496C443.025 105.595 438.503 104.144 432.444 104.144C428.433 104.144 424.508 104.827 420.668 106.192C416.828 107.472 413.585 109.221 410.94 111.44L405.82 102.224C409.319 99.408 413.5 97.2747 418.364 95.824C423.313 94.288 428.476 93.52 433.852 93.52C443.153 93.52 450.321 95.7813 455.356 100.304C460.391 104.827 462.908 111.739 462.908 121.04V162H451.26ZM428.988 162.768C423.953 162.768 419.516 161.915 415.676 160.208C411.921 158.501 409.02 156.155 406.972 153.168C404.924 150.096 403.9 146.64 403.9 142.8C403.9 139.131 404.753 135.803 406.46 132.816C408.252 129.829 411.111 127.44 415.036 125.648C419.047 123.856 424.423 122.96 431.164 122.96H452.668V131.792H431.676C425.532 131.792 421.393 132.816 419.26 134.864C417.127 136.912 416.06 139.387 416.06 142.288C416.06 145.616 417.383 148.304 420.028 150.352C422.673 152.315 426.343 153.296 431.036 153.296C435.644 153.296 439.655 152.272 443.068 150.224C446.567 148.176 449.084 145.189 450.62 141.264L453.052 149.712C451.431 153.723 448.572 156.923 444.476 159.312C440.38 161.616 435.217 162.768 428.988 162.768ZM485.648 162V94.16H497.936V162H485.648ZM491.792 81.104C489.403 81.104 487.397 80.336 485.776 78.8C484.24 77.264 483.472 75.3867 483.472 73.168C483.472 70.864 484.24 68.944 485.776 67.408C487.397 65.872 489.403 65.104 491.792 65.104C494.181 65.104 496.144 65.872 497.68 67.408C499.301 68.8587 500.112 70.6933 500.112 72.912C500.112 75.216 499.344 77.1787 497.808 78.8C496.272 80.336 494.267 81.104 491.792 81.104ZM563.638 163.024C556.726 163.024 550.369 161.915 544.566 159.696C538.763 157.392 533.729 154.192 529.462 150.096C525.195 145.915 521.867 141.051 519.478 135.504C517.089 129.957 515.894 123.856 515.894 117.2C515.894 110.544 517.089 104.443 519.478 98.896C521.867 93.3493 525.195 88.528 529.462 84.432C533.814 80.2507 538.891 77.0507 544.694 74.832C550.497 72.528 556.897 71.376 563.894 71.376C570.977 71.376 577.462 72.528 583.35 74.832C589.238 77.136 594.23 80.592 598.326 85.2L590.39 93.136C586.721 89.552 582.71 86.9493 578.358 85.328C574.091 83.6213 569.441 82.768 564.406 82.768C559.286 82.768 554.507 83.6213 550.07 85.328C545.718 87.0347 541.921 89.424 538.678 92.496C535.521 95.568 533.046 99.2373 531.254 103.504C529.547 107.685 528.694 112.251 528.694 117.2C528.694 122.064 529.547 126.629 531.254 130.896C533.046 135.077 535.521 138.747 538.678 141.904C541.921 144.976 545.718 147.365 550.07 149.072C554.422 150.779 559.158 151.632 564.278 151.632C569.057 151.632 573.622 150.907 577.974 149.456C582.411 147.92 586.507 145.403 590.262 141.904L597.558 151.632C593.121 155.387 587.915 158.245 581.942 160.208C576.054 162.085 569.953 163.024 563.638 163.024ZM585.27 149.968V116.688H597.558V151.632L585.27 149.968ZM622.065 162V72.4H657.009C664.86 72.4 671.558 73.6373 677.105 76.112C682.652 78.5867 686.918 82.1707 689.905 86.864C692.892 91.5573 694.385 97.1467 694.385 103.632C694.385 110.117 692.892 115.707 689.905 120.4C686.918 125.008 682.652 128.592 677.105 131.152C671.558 133.627 664.86 134.864 657.009 134.864H629.105L634.865 128.848V162H622.065ZM634.865 130.128L629.105 123.728H656.625C664.817 123.728 671.004 121.979 675.185 118.48C679.452 114.981 681.585 110.032 681.585 103.632C681.585 97.232 679.452 92.2827 675.185 88.784C671.004 85.2853 664.817 83.536 656.625 83.536H629.105L634.865 77.136V130.128ZM728.107 162V83.536H697.387V72.4H771.499V83.536H740.779V162H728.107Z" fill="black"/>
<path d="M154.311 79.5107C142.212 79.4995 130.908 79.8105 119.633 79.3754C112.494 79.0998 110.362 82.003 110.437 88.7976C110.701 112.864 110.469 136.935 110.597 161.003C110.629 167.252 110.209 171.956 101.824 172C93.5386 172.043 91.9969 168.165 92.0536 160.995C92.2912 130.985 92.3134 100.97 92.0017 70.961C91.9258 63.6512 94.3682 60.9213 101.728 61.0117C124.605 61.2926 147.489 61.2537 170.367 61.0015C177.807 60.9196 180.184 64.1139 180.132 71.2176C179.91 101.525 179.931 131.836 180.1 162.144C180.137 168.769 178.055 171.946 170.903 171.922C164.053 171.899 161.467 169.48 161.546 162.488C161.823 137.828 161.616 113.163 161.624 88.4996C161.625 83.8836 161.986 79.1106 154.311 79.5107Z" fill="black"/>
</svg>
